# xmcd
#
# Track frame offsets:
#	150
#	30252
#	47592
#	70872
#	95130
#	114600
#	135292
#	156450
#	179030
#	201070
#	217555
#	233005
#
# Disc length: 3376 seconds
# Revision: 0
# Processed by: cddbd v1.5.2PL0 Copyright (c) Steve Scherf et al.
# Submitted via: dBpowerAMP V12.0
#
DISCID=9d0d2e0c
DTITLE=Various Artist - The Very Best Of Love
DYEAR=2002
DGENRE=R&B
TTITLE0=Luther Vandross - Power Of Love/Love Power
TTITLE1=Luther Vandross - Never Too Much
TTITLE2=Luther Vandross - Stop To Love
TTITLE3=Luther Vandross - Here and Now
TTITLE4=Luther Vandross and Mariah Carey - Endless Love
TTITLE5=Luther Vandross - Don't Want To Be A Fool
TTITLE6=Luther Vandross - Little Miracles (Happen Every Day)
TTITLE7=Luther Vandross - Any Love
TTITLE8=Luther Vandross - Heaven Knows
TTITLE9=Luther Vandross - So Amazing
TTITLE10=Luther Vandross and Dionne Warwick - How Many Times Can We Say Goodbye
TTITLE11=Luther Vandross - Never Let Me Go
EXTD=
EXTT0=
EXTT1=
EXTT2=
EXTT3=
EXTT4=
EXTT5=
EXTT6=
EXTT7=
EXTT8=
EXTT9=
EXTT10=
EXTT11=
PLAYORDER=
